<?xml version="1.0" standalone="no"?>
<!DOCTYPE svg PUBLIC "-//W3C//DTD SVG 20010904//EN"
 "http://www.w3.org/TR/2001/REC-SVG-20010904/DTD/svg10.dtd">
<svg version="1.0" xmlns="http://www.w3.org/2000/svg"
 width="135.000000pt" height="124.000000pt" viewBox="0 0 135.000000 124.000000"
 preserveAspectRatio="xMidYMid meet">
<metadata>
Created by potrace 1.10, written by Peter Selinger 2001-2011
</metadata>
<g transform="translate(0.000000,124.000000) scale(0.100000,-0.100000)"
fill="#000000" stroke="none">
<path d="M756 1049 c-137 -22 -226 -123 -226 -260 0 -83 45 -173 110 -219 l28
-20 56 37 c52 35 55 38 34 46 -136 50 -160 225 -39 287 58 29 169 28 236 -4
66 -31 136 -107 166 -182 19 -49 24 -77 24 -164 0 -95 -3 -111 -27 -161 -23
-47 -28 -69 -28 -135 l0 -78 44 43 c170 167 168 503 -5 686 -102 108 -222 148
-373 124z m236 -71 c149 -69 241 -255 225 -454 -7 -75 -38 -174 -61 -194 -26
-21 -25 6 2 71 23 55 26 78 27 169 0 86 -4 116 -23 165 -43 114 -139 210 -235
236 -60 16 -156 13 -205 -6 -122 -49 -158 -200 -72 -299 32 -36 38 -56 17 -56
-20 0 -53 39 -76 90 -48 105 -10 228 84 278 49 25 85 31 175 29 67 -3 97 -9
142 -29z"/>
<path d="M478 971 c-269 -115 -384 -372 -292 -653 l16 -48 69 0 c38 0 69 2 69
4 0 2 -11 24 -25 47 -41 73 -37 80 46 77 l71 -3 20 -62 19 -63 55 0 c50 0 55
2 48 18 -56 126 -98 322 -97 457 1 109 16 166 59 222 14 18 21 33 17 33 -4 0
-38 -13 -75 -29z m-38 -120 c-6 -12 -20 -21 -32 -21 -31 0 -115 -92 -144 -157
-29 -65 -43 -196 -26 -240 6 -15 14 -48 17 -71 6 -39 5 -43 -11 -40 -49 9 -59
249 -15 360 26 66 104 157 171 200 43 27 45 28 48 9 2 -11 -2 -29 -8 -40z
m-21 -112 c-10 -60 -5 -243 8 -297 5 -23 4 -23 -73 -20 l-79 3 0 90 c1 75 5
99 27 146 24 53 112 158 123 148 2 -3 0 -34 -6 -70z m76 -359 c8 -29 10 -49 5
-44 -15 16 -37 79 -32 92 6 20 12 10 27 -48z"/>
<path d="M980 715 c-26 -31 13 -82 44 -56 19 16 21 42 4 59 -16 16 -33 15 -48
-3z"/>
<path d="M666 393 c4 -15 14 -48 23 -73 l17 -45 67 -3 c37 -2 67 0 67 3 0 3
-7 17 -16 30 -9 13 -22 44 -29 67 l-12 43 -62 3 -62 3 7 -28z m92 -51 c4 -24
-7 -29 -26 -10 -18 18 -15 40 6 36 9 -2 18 -13 20 -26z"/>
</g>
</svg>
